# MagicaVoxel @ Ephtracy

# group
o 

# material
mtllib Catapult-0.mtl
usemtl palette

# normals
vn -1 0 0
vn 1 0 0
vn 0 0 1
vn 0 0 -1
vn 0 -1 0
vn 0 1 0

# texcoords
vt 0.341797 0.5
vt 0.986328 0.5

# verts
v -2 0.3 -0.2
v -2 0.3 -0.7
v -2 0.5 -0.2
v -2 0.5 -0.7
v -1.9 0.2 -0.2
v -1.9 0.2 -0.7
v -1.9 0.3 -0.1
v -1.9 0.3 -0.2
v -1.9 0.3 -0.7
v -1.9 0.3 -0.8
v -1.9 0.5 -0.1
v -1.9 0.5 -0.2
v -1.9 0.5 -0.7
v -1.9 0.5 -0.8
v -1.8 0.1 -0.2
v -1.8 0.1 -0.7
v -1.8 0.2 -0.1
v -1.8 0.2 -0.2
v -1.8 0.2 -0.7
v -1.8 0.2 -0.8
v -1.8 0.3 0
v -1.8 0.3 -0.1
v -1.8 0.3 -0.2
v -1.8 0.3 -0.7
v -1.8 0.3 -0.8
v -1.8 0.3 -0.9
v -1.8 0.5 0
v -1.8 0.5 -0.1
v -1.8 0.5 -0.8
v -1.8 0.5 -0.9
v -1.7 0.1 -0.1
v -1.7 0.1 -0.2
v -1.7 0.1 -0.7
v -1.7 0.1 -0.8
v -1.7 0.2 0
v -1.7 0.2 -0.1
v -1.7 0.2 -0.2
v -1.7 0.2 -0.7
v -1.7 0.2 -0.8
v -1.7 0.2 -0.9
v -1.7 0.3 0.1
v -1.7 0.3 0
v -1.7 0.3 -0.1
v -1.7 0.3 -0.8
v -1.7 0.3 -0.9
v -1.7 0.3 -1
v -1.7 0.5 0.1
v -1.7 0.5 0
v -1.7 0.5 -0.9
v -1.7 0.5 -1
v -1.5 0 -0.4
v -1.5 0 -0.5
v -1.5 0.1 -0.4
v -1.5 0.1 -0.5
v -1.4 0 -0.3
v -1.4 0 -0.4
v -1.4 0 -0.5
v -1.4 0 -0.6
v -1.4 0.1 -0.3
v -1.4 0.1 -0.4
v -1.4 0.1 -0.5
v -1.4 0.1 -0.6
v -1.2 0.2 -0.2
v -1.2 0.2 -0.7
v -1.2 0.3 -0.1
v -1.2 0.3 -0.2
v -1.2 0.3 -0.7
v -1.2 0.3 -0.8
v -1.2 0.4 0
v -1.2 0.4 -0.1
v -1.2 0.4 -0.2
v -1.2 0.4 -0.7
v -1.2 0.4 -0.8
v -1.2 0.4 -0.9
v -1.2 0.5 0
v -1.2 0.5 -0.1
v -1.2 0.5 -0.8
v -1.2 0.5 -0.9
v -1.1 0.3 -0.2
v -1.1 0.3 -0.7
v -1.1 0.4 -0.1
v -1.1 0.4 -0.2
v -1.1 0.4 -0.7
v -1.1 0.4 -0.8
v -1.1 0.5 -0.1
v -1.1 0.5 -0.2
v -1.1 0.5 -0.7
v -1.1 0.5 -0.8
v -1 0.4 -0.2
v -1 0.4 -0.7
v -1 0.5 -0.2
v -1 0.5 -0.7
v -1.9 0.4 -0.2
v -1.9 0.4 -0.7
v -1.9 0.5 -0.2
v -1.9 0.5 -0.7
v -1.8 0.3 -0.2
v -1.8 0.3 -0.7
v -1.8 0.4 -0.1
v -1.8 0.4 -0.2
v -1.8 0.4 -0.7
v -1.8 0.4 -0.8
v -1.8 0.5 -0.1
v -1.8 0.5 -0.2
v -1.8 0.5 -0.7
v -1.8 0.5 -0.8
v -1.7 0.2 -0.2
v -1.7 0.2 -0.7
v -1.7 0.3 -0.1
v -1.7 0.3 -0.2
v -1.7 0.3 -0.7
v -1.7 0.3 -0.8
v -1.7 0.4 0
v -1.7 0.4 -0.1
v -1.7 0.4 -0.2
v -1.7 0.4 -0.7
v -1.7 0.4 -0.8
v -1.7 0.4 -0.9
v -1.7 0.5 0
v -1.7 0.5 -0.1
v -1.7 0.5 -0.8
v -1.7 0.5 -0.9
v -1.2 0.1 -0.1
v -1.2 0.1 -0.2
v -1.2 0.1 -0.7
v -1.2 0.1 -0.8
v -1.2 0.2 0
v -1.2 0.2 -0.1
v -1.2 0.2 -0.2
v -1.2 0.2 -0.7
v -1.2 0.2 -0.8
v -1.2 0.2 -0.9
v -1.2 0.3 0.1
v -1.2 0.3 0
v -1.2 0.3 -0.1
v -1.2 0.3 -0.8
v -1.2 0.3 -0.9
v -1.2 0.3 -1
v -1.2 0.5 0.1
v -1.2 0.5 0
v -1.2 0.5 -0.9
v -1.2 0.5 -1
v -1.1 0 -0.3
v -1.1 0 -0.4
v -1.1 0 -0.5
v -1.1 0 -0.6
v -1.1 0.1 -0.2
v -1.1 0.1 -0.3
v -1.1 0.1 -0.4
v -1.1 0.1 -0.5
v -1.1 0.1 -0.6
v -1.1 0.1 -0.7
v -1.1 0.2 -0.1
v -1.1 0.2 -0.2
v -1.1 0.2 -0.3
v -1.1 0.2 -0.6
v -1.1 0.2 -0.7
v -1.1 0.2 -0.8
v -1.1 0.3 0
v -1.1 0.3 -0.1
v -1.1 0.3 -0.2
v -1.1 0.3 -0.7
v -1.1 0.3 -0.8
v -1.1 0.3 -0.9
v -1.1 0.5 0
v -1.1 0.5 -0.1
v -1.1 0.5 -0.8
v -1.1 0.5 -0.9
v -1 0.2 -0.2
v -1 0.2 -0.3
v -1 0.2 -0.4
v -1 0.2 -0.5
v -1 0.2 -0.6
v -1 0.2 -0.7
v -1 0.3 -0.1
v -1 0.3 -0.2
v -1 0.3 -0.4
v -1 0.3 -0.5
v -1 0.3 -0.7
v -1 0.3 -0.8
v -1 0.5 -0.1
v -1 0.5 -0.2
v -1 0.5 -0.7
v -1 0.5 -0.8
v -0.9 0.3 -0.2
v -0.9 0.3 -0.4
v -0.9 0.3 -0.5
v -0.9 0.3 -0.7
v -0.9 0.5 -0.2
v -0.9 0.5 -0.7
v 1.9 0 -0.4
v 1.9 0 -0.5
v 1.9 0.1 -0.3
v 1.9 0.1 -0.4
v 1.9 0.1 -0.5
v 1.9 0.1 -0.6
v 1.9 0.2 -0.3
v 1.9 0.2 -0.4
v 1.9 0.2 -0.5
v 1.9 0.2 -0.6
v 1.9 0.3 -0.4
v 1.9 0.3 -0.5
v -1.7 0.3 0.1
v -1.7 0.5 0.1
v -1.2 0.3 0.1
v -1.2 0.5 0.1
v -1.8 0.3 0
v -1.8 0.5 0
v -1.7 0.2 0
v -1.7 0.3 0
v -1.7 0.5 0
v -1.2 0.2 0
v -1.2 0.3 0
v -1.2 0.5 0
v -1.1 0.3 0
v -1.1 0.5 0
v -1.9 0.3 -0.1
v -1.9 0.5 -0.1
v -1.8 0.2 -0.1
v -1.8 0.3 -0.1
v -1.8 0.5 -0.1
v -1.7 0.1 -0.1
v -1.7 0.2 -0.1
v -1.7 0.3 -0.1
v -1.2 0.1 -0.1
v -1.2 0.2 -0.1
v -1.2 0.3 -0.1
v -1.1 0.2 -0.1
v -1.1 0.3 -0.1
v -1.1 0.5 -0.1
v -1 0.3 -0.1
v -1 0.5 -0.1
v -2 0.3 -0.2
v -2 0.5 -0.2
v -1.9 0.2 -0.2
v -1.9 0.3 -0.2
v -1.9 0.5 -0.2
v -1.8 0.1 -0.2
v -1.8 0.2 -0.2
v -1.8 0.3 -0.2
v -1.7 0.1 -0.2
v -1.7 0.2 -0.2
v -1.2 0.1 -0.2
v -1.2 0.2 -0.2
v -1.1 0.1 -0.2
v -1.1 0.2 -0.2
v -1.1 0.3 -0.2
v -1 0.2 -0.2
v -1 0.3 -0.2
v -1 0.5 -0.2
v -0.9 0.3 -0.2
v -0.9 0.5 -0.2
v -1.4 0 -0.3
v -1.4 0.1 -0.3
v -1.1 0 -0.3
v -1.1 0.1 -0.3
v -1.1 0.2 -0.3
v -1 0.2 -0.3
v 1.9 0.1 -0.3
v 1.9 0.2 -0.3
v -1.5 0 -0.4
v -1.5 0.1 -0.4
v -1.4 0 -0.4
v -1.4 0.1 -0.4
v -1.1 0 -0.4
v -1.1 0.1 -0.4
v -1 0.2 -0.4
v -1 0.3 -0.4
v -0.9 0.3 -0.4
v 1.9 0 -0.4
v 1.9 0.1 -0.4
v 1.9 0.2 -0.4
v 1.9 0.3 -0.4
v -1.9 0.4 -0.7
v -1.9 0.5 -0.7
v -1.8 0.3 -0.7
v -1.8 0.4 -0.7
v -1.8 0.5 -0.7
v -1.7 0.2 -0.7
v -1.7 0.3 -0.7
v -1.7 0.4 -0.7
v -1.2 0.2 -0.7
v -1.2 0.3 -0.7
v -1.2 0.4 -0.7
v -1.1 0.3 -0.7
v -1.1 0.4 -0.7
v -1.1 0.5 -0.7
v -1 0.4 -0.7
v -1 0.5 -0.7
v -1.8 0.4 -0.8
v -1.8 0.5 -0.8
v -1.7 0.3 -0.8
v -1.7 0.4 -0.8
v -1.7 0.5 -0.8
v -1.2 0.3 -0.8
v -1.2 0.4 -0.8
v -1.2 0.5 -0.8
v -1.1 0.4 -0.8
v -1.1 0.5 -0.8
v -1.7 0.4 -0.9
v -1.7 0.5 -0.9
v -1.2 0.4 -0.9
v -1.2 0.5 -0.9
v -1.7 0.4 0
v -1.7 0.5 0
v -1.2 0.4 0
v -1.2 0.5 0
v -1.8 0.4 -0.1
v -1.8 0.5 -0.1
v -1.7 0.3 -0.1
v -1.7 0.4 -0.1
v -1.7 0.5 -0.1
v -1.2 0.3 -0.1
v -1.2 0.4 -0.1
v -1.2 0.5 -0.1
v -1.1 0.4 -0.1
v -1.1 0.5 -0.1
v -1.9 0.4 -0.2
v -1.9 0.5 -0.2
v -1.8 0.3 -0.2
v -1.8 0.4 -0.2
v -1.8 0.5 -0.2
v -1.7 0.2 -0.2
v -1.7 0.3 -0.2
v -1.7 0.4 -0.2
v -1.2 0.2 -0.2
v -1.2 0.3 -0.2
v -1.2 0.4 -0.2
v -1.1 0.3 -0.2
v -1.1 0.4 -0.2
v -1.1 0.5 -0.2
v -1 0.4 -0.2
v -1 0.5 -0.2
v -1.5 0 -0.5
v -1.5 0.1 -0.5
v -1.4 0 -0.5
v -1.4 0.1 -0.5
v -1.1 0 -0.5
v -1.1 0.1 -0.5
v -1 0.2 -0.5
v -1 0.3 -0.5
v -0.9 0.3 -0.5
v 1.9 0 -0.5
v 1.9 0.1 -0.5
v 1.9 0.2 -0.5
v 1.9 0.3 -0.5
v -1.4 0 -0.6
v -1.4 0.1 -0.6
v -1.1 0 -0.6
v -1.1 0.1 -0.6
v -1.1 0.2 -0.6
v -1 0.2 -0.6
v 1.9 0.1 -0.6
v 1.9 0.2 -0.6
v -2 0.3 -0.7
v -2 0.5 -0.7
v -1.9 0.2 -0.7
v -1.9 0.3 -0.7
v -1.9 0.5 -0.7
v -1.8 0.1 -0.7
v -1.8 0.2 -0.7
v -1.8 0.3 -0.7
v -1.7 0.1 -0.7
v -1.7 0.2 -0.7
v -1.2 0.1 -0.7
v -1.2 0.2 -0.7
v -1.1 0.1 -0.7
v -1.1 0.2 -0.7
v -1.1 0.3 -0.7
v -1 0.2 -0.7
v -1 0.3 -0.7
v -1 0.5 -0.7
v -0.9 0.3 -0.7
v -0.9 0.5 -0.7
v -1.9 0.3 -0.8
v -1.9 0.5 -0.8
v -1.8 0.2 -0.8
v -1.8 0.3 -0.8
v -1.8 0.5 -0.8
v -1.7 0.1 -0.8
v -1.7 0.2 -0.8
v -1.7 0.3 -0.8
v -1.2 0.1 -0.8
v -1.2 0.2 -0.8
v -1.2 0.3 -0.8
v -1.1 0.2 -0.8
v -1.1 0.3 -0.8
v -1.1 0.5 -0.8
v -1 0.3 -0.8
v -1 0.5 -0.8
v -1.8 0.3 -0.9
v -1.8 0.5 -0.9
v -1.7 0.2 -0.9
v -1.7 0.3 -0.9
v -1.7 0.5 -0.9
v -1.2 0.2 -0.9
v -1.2 0.3 -0.9
v -1.2 0.5 -0.9
v -1.1 0.3 -0.9
v -1.1 0.5 -0.9
v -1.7 0.3 -1
v -1.7 0.5 -1
v -1.2 0.3 -1
v -1.2 0.5 -1
v -1.4 0 -0.3
v -1.1 0 -0.3
v -1.5 0 -0.4
v -1.4 0 -0.4
v -1.2 0 -0.4
v -1.1 0 -0.4
v 1.9 0 -0.4
v -1.5 0 -0.5
v -1.4 0 -0.5
v -1.2 0 -0.5
v -1.1 0 -0.5
v 1.9 0 -0.5
v -1.4 0 -0.6
v -1.1 0 -0.6
v -1.7 0.1 -0.1
v -1.2 0.1 -0.1
v -1.8 0.1 -0.2
v -1.7 0.1 -0.2
v -1.2 0.1 -0.2
v -1.1 0.1 -0.2
v -1.4 0.1 -0.3
v -1.1 0.1 -0.3
v 1.9 0.1 -0.3
v -1.5 0.1 -0.4
v -1.4 0.1 -0.4
v -1.1 0.1 -0.4
v 1.9 0.1 -0.4
v -1.5 0.1 -0.5
v -1.4 0.1 -0.5
v -1.1 0.1 -0.5
v 1.9 0.1 -0.5
v -1.4 0.1 -0.6
v -1.1 0.1 -0.6
v 1.9 0.1 -0.6
v -1.8 0.1 -0.7
v -1.7 0.1 -0.7
v -1.2 0.1 -0.7
v -1.1 0.1 -0.7
v -1.7 0.1 -0.8
v -1.2 0.1 -0.8
v -1.7 0.2 0
v -1.2 0.2 0
v -1.8 0.2 -0.1
v -1.7 0.2 -0.1
v -1.2 0.2 -0.1
v -1.1 0.2 -0.1
v -1.9 0.2 -0.2
v -1.8 0.2 -0.2
v -1.7 0.2 -0.2
v -1.2 0.2 -0.2
v -1.1 0.2 -0.2
v -1 0.2 -0.2
v -1.1 0.2 -0.3
v -1 0.2 -0.3
v -1.1 0.2 -0.6
v -1 0.2 -0.6
v -1.9 0.2 -0.7
v -1.8 0.2 -0.7
v -1.7 0.2 -0.7
v -1.2 0.2 -0.7
v -1.1 0.2 -0.7
v -1 0.2 -0.7
v -1.8 0.2 -0.8
v -1.7 0.2 -0.8
v -1.2 0.2 -0.8
v -1.1 0.2 -0.8
v -1.7 0.2 -0.9
v -1.2 0.2 -0.9
v -1.7 0.3 0.1
v -1.2 0.3 0.1
v -1.8 0.3 0
v -1.7 0.3 0
v -1.2 0.3 0
v -1.1 0.3 0
v -1.9 0.3 -0.1
v -1.8 0.3 -0.1
v -1.7 0.3 -0.1
v -1.2 0.3 -0.1
v -1.1 0.3 -0.1
v -1 0.3 -0.1
v -2 0.3 -0.2
v -1.9 0.3 -0.2
v -1.8 0.3 -0.2
v -1.1 0.3 -0.2
v -1 0.3 -0.2
v -0.9 0.3 -0.2
v -1 0.3 -0.4
v -0.9 0.3 -0.4
v -1 0.3 -0.5
v -0.9 0.3 -0.5
v -2 0.3 -0.7
v -1.9 0.3 -0.7
v -1.8 0.3 -0.7
v -1.1 0.3 -0.7
v -1 0.3 -0.7
v -0.9 0.3 -0.7
v -1.9 0.3 -0.8
v -1.8 0.3 -0.8
v -1.7 0.3 -0.8
v -1.2 0.3 -0.8
v -1.1 0.3 -0.8
v -1 0.3 -0.8
v -1.8 0.3 -0.9
v -1.7 0.3 -0.9
v -1.2 0.3 -0.9
v -1.1 0.3 -0.9
v -1.7 0.3 -1
v -1.2 0.3 -1
v -1.7 0.2 -0.2
v -1.2 0.2 -0.2
v -1 0.2 -0.3
v 1.9 0.2 -0.3
v -1 0.2 -0.4
v 1.9 0.2 -0.4
v -1 0.2 -0.5
v 1.9 0.2 -0.5
v -1 0.2 -0.6
v 1.9 0.2 -0.6
v -1.7 0.2 -0.7
v -1.2 0.2 -0.7
v -1.7 0.3 -0.1
v -1.2 0.3 -0.1
v -1.8 0.3 -0.2
v -1.7 0.3 -0.2
v -1.2 0.3 -0.2
v -1.1 0.3 -0.2
v -0.9 0.3 -0.4
v 1.9 0.3 -0.4
v -0.9 0.3 -0.5
v 1.9 0.3 -0.5
v -1.8 0.3 -0.7
v -1.7 0.3 -0.7
v -1.2 0.3 -0.7
v -1.1 0.3 -0.7
v -1.7 0.3 -0.8
v -1.2 0.3 -0.8
v -1.7 0.4 0
v -1.2 0.4 0
v -1.8 0.4 -0.1
v -1.7 0.4 -0.1
v -1.2 0.4 -0.1
v -1.1 0.4 -0.1
v -1.9 0.4 -0.2
v -1.8 0.4 -0.2
v -1.7 0.4 -0.2
v -1.2 0.4 -0.2
v -1.1 0.4 -0.2
v -1 0.4 -0.2
v -1.9 0.4 -0.7
v -1.8 0.4 -0.7
v -1.7 0.4 -0.7
v -1.2 0.4 -0.7
v -1.1 0.4 -0.7
v -1 0.4 -0.7
v -1.8 0.4 -0.8
v -1.7 0.4 -0.8
v -1.2 0.4 -0.8
v -1.1 0.4 -0.8
v -1.7 0.4 -0.9
v -1.2 0.4 -0.9
v -1.7 0.5 0.1
v -1.2 0.5 0.1
v -1.8 0.5 0
v -1.7 0.5 0
v -1.2 0.5 0
v -1.1 0.5 0
v -1.9 0.5 -0.1
v -1.8 0.5 -0.1
v -1.7 0.5 -0.1
v -1.2 0.5 -0.1
v -1.1 0.5 -0.1
v -1 0.5 -0.1
v -2 0.5 -0.2
v -1.9 0.5 -0.2
v -1.8 0.5 -0.2
v -1.1 0.5 -0.2
v -1 0.5 -0.2
v -0.9 0.5 -0.2
v -2 0.5 -0.7
v -1.9 0.5 -0.7
v -1.8 0.5 -0.7
v -1.1 0.5 -0.7
v -1 0.5 -0.7
v -0.9 0.5 -0.7
v -1.9 0.5 -0.8
v -1.8 0.5 -0.8
v -1.7 0.5 -0.8
v -1.2 0.5 -0.8
v -1.1 0.5 -0.8
v -1 0.5 -0.8
v -1.8 0.5 -0.9
v -1.7 0.5 -0.9
v -1.2 0.5 -0.9
v -1.1 0.5 -0.9
v -1.7 0.5 -1
v -1.2 0.5 -1

# faces
f 3/2/1 2/2/1 1/2/1
f 4/2/1 2/2/1 3/2/1
f 8/2/1 6/2/1 5/2/1
f 9/2/1 6/2/1 8/2/1
f 11/2/1 8/2/1 7/2/1
f 12/2/1 8/2/1 11/2/1
f 13/2/1 10/2/1 9/2/1
f 14/2/1 10/2/1 13/2/1
f 18/2/1 16/2/1 15/2/1
f 19/2/1 16/2/1 18/2/1
f 22/2/1 18/2/1 17/2/1
f 23/2/1 18/2/1 22/2/1
f 24/2/1 20/2/1 19/2/1
f 25/2/1 20/2/1 24/2/1
f 27/2/1 22/2/1 21/2/1
f 28/2/1 22/2/1 27/2/1
f 29/2/1 26/2/1 25/2/1
f 30/2/1 26/2/1 29/2/1
f 36/2/1 32/2/1 31/2/1
f 37/2/1 32/2/1 36/2/1
f 38/2/1 34/2/1 33/2/1
f 39/2/1 34/2/1 38/2/1
f 42/2/1 36/2/1 35/2/1
f 43/2/1 36/2/1 42/2/1
f 44/2/1 40/2/1 39/2/1
f 45/2/1 40/2/1 44/2/1
f 47/2/1 42/2/1 41/2/1
f 48/2/1 42/2/1 47/2/1
f 49/2/1 46/2/1 45/2/1
f 50/2/1 46/2/1 49/2/1
f 53/2/1 52/2/1 51/2/1
f 54/2/1 52/2/1 53/2/1
f 59/2/1 56/2/1 55/2/1
f 60/2/1 56/2/1 59/2/1
f 61/2/1 58/2/1 57/2/1
f 62/2/1 58/2/1 61/2/1
f 66/2/1 64/2/1 63/2/1
f 67/2/1 64/2/1 66/2/1
f 70/2/1 66/2/1 65/2/1
f 71/2/1 66/2/1 70/2/1
f 72/2/1 68/2/1 67/2/1
f 73/2/1 68/2/1 72/2/1
f 75/2/1 70/2/1 69/2/1
f 76/2/1 70/2/1 75/2/1
f 77/2/1 74/2/1 73/2/1
f 78/2/1 74/2/1 77/2/1
f 82/2/1 80/2/1 79/2/1
f 83/2/1 80/2/1 82/2/1
f 85/2/1 82/2/1 81/2/1
f 86/2/1 82/2/1 85/2/1
f 87/2/1 84/2/1 83/2/1
f 88/2/1 84/2/1 87/2/1
f 91/2/1 90/2/1 89/2/1
f 92/2/1 90/2/1 91/2/1
f 93/2/2 94/2/2 95/2/2
f 95/2/2 94/2/2 96/2/2
f 97/2/2 98/2/2 100/2/2
f 100/2/2 98/2/2 101/2/2
f 99/2/2 100/2/2 103/2/2
f 103/2/2 100/2/2 104/2/2
f 101/2/2 102/2/2 105/2/2
f 105/2/2 102/2/2 106/2/2
f 107/2/2 108/2/2 110/2/2
f 110/2/2 108/2/2 111/2/2
f 109/2/2 110/2/2 114/2/2
f 114/2/2 110/2/2 115/2/2
f 111/2/2 112/2/2 116/2/2
f 116/2/2 112/2/2 117/2/2
f 113/2/2 114/2/2 119/2/2
f 119/2/2 114/2/2 120/2/2
f 117/2/2 118/2/2 121/2/2
f 121/2/2 118/2/2 122/2/2
f 123/2/2 124/2/2 128/2/2
f 128/2/2 124/2/2 129/2/2
f 125/2/2 126/2/2 130/2/2
f 130/2/2 126/2/2 131/2/2
f 127/2/2 128/2/2 134/2/2
f 134/2/2 128/2/2 135/2/2
f 131/2/2 132/2/2 136/2/2
f 136/2/2 132/2/2 137/2/2
f 133/2/2 134/2/2 139/2/2
f 139/2/2 134/2/2 140/2/2
f 137/2/2 138/2/2 141/2/2
f 141/2/2 138/2/2 142/2/2
f 143/2/2 144/2/2 148/2/2
f 148/2/2 144/2/2 149/2/2
f 145/2/2 146/2/2 150/2/2
f 150/2/2 146/2/2 151/2/2
f 147/2/2 148/2/2 154/2/2
f 154/2/2 148/2/2 155/2/2
f 151/2/2 152/2/2 156/2/2
f 156/2/2 152/2/2 157/2/2
f 153/2/2 154/2/2 160/2/2
f 160/2/2 154/2/2 161/2/2
f 157/2/2 158/2/2 162/2/2
f 162/2/2 158/2/2 163/2/2
f 159/2/2 160/2/2 165/2/2
f 165/2/2 160/2/2 166/2/2
f 163/2/2 164/2/2 167/2/2
f 167/2/2 164/2/2 168/2/2
f 169/2/2 170/2/2 176/2/2
f 170/2/2 171/2/2 176/2/2
f 176/2/2 171/2/2 177/2/2
f 173/2/2 174/2/2 178/2/2
f 172/2/2 173/2/2 178/2/2
f 178/2/2 174/2/2 179/2/2
f 175/2/2 176/2/2 181/2/2
f 181/2/2 176/2/2 182/2/2
f 179/2/2 180/2/2 183/2/2
f 183/2/2 180/2/2 184/2/2
f 185/2/2 186/2/2 189/2/2
f 187/2/2 188/2/2 189/2/2
f 186/2/2 187/2/2 189/2/2
f 189/2/2 188/2/2 190/2/2
f 191/1/2 192/1/2 194/1/2
f 194/1/2 192/1/2 195/1/2
f 193/1/2 194/1/2 197/1/2
f 195/1/2 196/1/2 197/1/2
f 194/1/2 195/1/2 197/1/2
f 197/1/2 196/1/2 198/1/2
f 198/1/2 196/1/2 199/1/2
f 199/1/2 196/1/2 200/1/2
f 198/1/2 199/1/2 201/1/2
f 201/1/2 199/1/2 202/1/2
f 205/2/3 204/2/3 203/2/3
f 206/2/3 204/2/3 205/2/3
f 210/2/3 208/2/3 207/2/3
f 211/2/3 208/2/3 210/2/3
f 212/2/3 210/2/3 209/2/3
f 213/2/3 210/2/3 212/2/3
f 215/2/3 214/2/3 213/2/3
f 216/2/3 214/2/3 215/2/3
f 220/2/3 218/2/3 217/2/3
f 221/2/3 218/2/3 220/2/3
f 223/2/3 220/2/3 219/2/3
f 224/2/3 220/2/3 223/2/3
f 225/2/3 223/2/3 222/2/3
f 226/2/3 223/2/3 225/2/3
f 228/2/3 227/2/3 226/2/3
f 229/2/3 227/2/3 228/2/3
f 231/2/3 230/2/3 229/2/3
f 232/2/3 230/2/3 231/2/3
f 236/2/3 234/2/3 233/2/3
f 237/2/3 234/2/3 236/2/3
f 239/2/3 236/2/3 235/2/3
f 240/2/3 236/2/3 239/2/3
f 241/2/3 239/2/3 238/2/3
f 242/2/3 239/2/3 241/2/3
f 245/2/3 244/2/3 243/2/3
f 246/2/3 244/2/3 245/2/3
f 248/2/3 247/2/3 246/2/3
f 249/2/3 247/2/3 248/2/3
f 251/2/3 250/2/3 249/2/3
f 252/2/3 250/2/3 251/2/3
f 255/2/3 254/2/3 253/2/3
f 256/2/3 254/2/3 255/2/3
f 258/1/3 257/1/3 256/1/3
f 259/1/3 258/1/3 256/1/3
f 260/1/3 258/1/3 259/1/3
f 263/2/3 262/2/3 261/2/3
f 264/2/3 262/2/3 263/2/3
f 269/1/3 268/1/3 267/1/3
f 270/1/3 266/1/3 265/1/3
f 271/1/3 266/1/3 270/1/3
f 272/1/3 269/1/3 267/1/3
f 273/1/3 269/1/3 272/1/3
f 277/2/3 275/2/3 274/2/3
f 278/2/3 275/2/3 277/2/3
f 280/2/3 277/2/3 276/2/3
f 281/2/3 277/2/3 280/2/3
f 282/2/3 280/2/3 279/2/3
f 283/2/3 280/2/3 282/2/3
f 285/2/3 284/2/3 283/2/3
f 286/2/3 284/2/3 285/2/3
f 288/2/3 287/2/3 286/2/3
f 289/2/3 287/2/3 288/2/3
f 293/2/3 291/2/3 290/2/3
f 294/2/3 291/2/3 293/2/3
f 295/2/3 293/2/3 292/2/3
f 296/2/3 293/2/3 295/2/3
f 298/2/3 297/2/3 296/2/3
f 299/2/3 297/2/3 298/2/3
f 302/2/3 301/2/3 300/2/3
f 303/2/3 301/2/3 302/2/3
f 304/2/4 305/2/4 306/2/4
f 306/2/4 305/2/4 307/2/4
f 308/2/4 309/2/4 311/2/4
f 311/2/4 309/2/4 312/2/4
f 310/2/4 311/2/4 313/2/4
f 313/2/4 311/2/4 314/2/4
f 314/2/4 315/2/4 316/2/4
f 316/2/4 315/2/4 317/2/4
f 318/2/4 319/2/4 321/2/4
f 321/2/4 319/2/4 322/2/4
f 320/2/4 321/2/4 324/2/4
f 324/2/4 321/2/4 325/2/4
f 323/2/4 324/2/4 326/2/4
f 326/2/4 324/2/4 327/2/4
f 327/2/4 328/2/4 329/2/4
f 329/2/4 328/2/4 330/2/4
f 330/2/4 331/2/4 332/2/4
f 332/2/4 331/2/4 333/2/4
f 334/2/4 335/2/4 336/2/4
f 336/2/4 335/2/4 337/2/4
f 340/1/4 341/1/4 342/1/4
f 338/1/4 339/1/4 343/1/4
f 343/1/4 339/1/4 344/1/4
f 340/1/4 342/1/4 345/1/4
f 345/1/4 342/1/4 346/1/4
f 347/2/4 348/2/4 349/2/4
f 349/2/4 348/2/4 350/2/4
f 350/1/4 351/1/4 352/1/4
f 350/1/4 352/1/4 353/1/4
f 353/1/4 352/1/4 354/1/4
f 355/2/4 356/2/4 358/2/4
f 358/2/4 356/2/4 359/2/4
f 357/2/4 358/2/4 361/2/4
f 361/2/4 358/2/4 362/2/4
f 360/2/4 361/2/4 363/2/4
f 363/2/4 361/2/4 364/2/4
f 365/2/4 366/2/4 367/2/4
f 367/2/4 366/2/4 368/2/4
f 368/2/4 369/2/4 370/2/4
f 370/2/4 369/2/4 371/2/4
f 371/2/4 372/2/4 373/2/4
f 373/2/4 372/2/4 374/2/4
f 375/2/4 376/2/4 378/2/4
f 378/2/4 376/2/4 379/2/4
f 377/2/4 378/2/4 381/2/4
f 381/2/4 378/2/4 382/2/4
f 380/2/4 381/2/4 383/2/4
f 383/2/4 381/2/4 384/2/4
f 384/2/4 385/2/4 386/2/4
f 386/2/4 385/2/4 387/2/4
f 387/2/4 388/2/4 389/2/4
f 389/2/4 388/2/4 390/2/4
f 391/2/4 392/2/4 394/2/4
f 394/2/4 392/2/4 395/2/4
f 393/2/4 394/2/4 396/2/4
f 396/2/4 394/2/4 397/2/4
f 397/2/4 398/2/4 399/2/4
f 399/2/4 398/2/4 400/2/4
f 401/2/4 402/2/4 403/2/4
f 403/2/4 402/2/4 404/2/4
f 408/2/5 406/2/5 405/2/5
f 409/2/5 406/2/5 408/2/5
f 410/2/5 406/2/5 409/2/5
f 412/2/5 408/2/5 407/2/5
f 412/2/5 409/2/5 408/2/5
f 413/2/5 409/2/5 412/2/5
f 414/1/5 411/1/5 410/1/5
f 414/2/5 409/2/5 413/2/5
f 414/1/5 410/1/5 409/1/5
f 415/1/5 411/1/5 414/1/5
f 416/1/5 411/1/5 415/1/5
f 417/2/5 414/2/5 413/2/5
f 417/2/5 415/2/5 414/2/5
f 418/2/5 415/2/5 417/2/5
f 422/2/5 420/2/5 419/2/5
f 423/2/5 420/2/5 422/2/5
f 425/2/5 422/2/5 421/2/5
f 425/2/5 424/2/5 423/2/5
f 425/2/5 423/2/5 422/2/5
f 426/2/5 424/2/5 425/2/5
f 428/2/5 425/2/5 421/2/5
f 429/2/5 425/2/5 428/2/5
f 430/1/5 427/1/5 426/1/5
f 431/1/5 427/1/5 430/1/5
f 432/2/5 428/2/5 421/2/5
f 436/2/5 433/2/5 432/2/5
f 437/1/5 435/1/5 434/1/5
f 438/1/5 435/1/5 437/1/5
f 439/2/5 432/2/5 421/2/5
f 439/2/5 436/2/5 432/2/5
f 439/2/5 437/2/5 436/2/5
f 440/2/5 437/2/5 439/2/5
f 441/2/5 437/2/5 440/2/5
f 442/2/5 437/2/5 441/2/5
f 443/2/5 441/2/5 440/2/5
f 444/2/5 441/2/5 443/2/5
f 448/2/5 446/2/5 445/2/5
f 449/2/5 446/2/5 448/2/5
f 452/2/5 448/2/5 447/2/5
f 453/2/5 448/2/5 452/2/5
f 454/2/5 450/2/5 449/2/5
f 455/2/5 450/2/5 454/2/5
f 457/2/5 456/2/5 455/2/5
f 458/2/5 456/2/5 457/2/5
f 461/2/5 452/2/5 451/2/5
f 462/2/5 452/2/5 461/2/5
f 465/2/5 460/2/5 459/2/5
f 466/2/5 460/2/5 465/2/5
f 467/2/5 463/2/5 462/2/5
f 468/2/5 463/2/5 467/2/5
f 469/2/5 465/2/5 464/2/5
f 470/2/5 465/2/5 469/2/5
f 471/2/5 469/2/5 468/2/5
f 472/2/5 469/2/5 471/2/5
f 476/2/5 474/2/5 473/2/5
f 477/2/5 474/2/5 476/2/5
f 480/2/5 476/2/5 475/2/5
f 481/2/5 476/2/5 480/2/5
f 482/2/5 478/2/5 477/2/5
f 483/2/5 478/2/5 482/2/5
f 486/2/5 480/2/5 479/2/5
f 487/2/5 480/2/5 486/2/5
f 488/2/5 484/2/5 483/2/5
f 489/2/5 484/2/5 488/2/5
f 491/2/5 490/2/5 489/2/5
f 492/2/5 490/2/5 491/2/5
f 495/2/5 486/2/5 485/2/5
f 496/2/5 486/2/5 495/2/5
f 499/2/5 494/2/5 493/2/5
f 500/2/5 494/2/5 499/2/5
f 501/2/5 497/2/5 496/2/5
f 502/2/5 497/2/5 501/2/5
f 505/2/5 499/2/5 498/2/5
f 506/2/5 499/2/5 505/2/5
f 507/2/5 503/2/5 502/2/5
f 508/2/5 503/2/5 507/2/5
f 509/2/5 505/2/5 504/2/5
f 510/2/5 505/2/5 509/2/5
f 511/2/5 509/2/5 508/2/5
f 512/2/5 509/2/5 511/2/5
f 515/1/6 516/1/6 517/1/6
f 517/1/6 516/1/6 518/1/6
f 519/1/6 520/1/6 521/1/6
f 521/1/6 520/1/6 522/1/6
f 513/2/6 514/2/6 523/2/6
f 523/2/6 514/2/6 524/2/6
f 525/2/6 526/2/6 528/2/6
f 528/2/6 526/2/6 529/2/6
f 531/1/6 532/1/6 533/1/6
f 533/1/6 532/1/6 534/1/6
f 527/2/6 528/2/6 535/2/6
f 535/2/6 528/2/6 536/2/6
f 529/2/6 530/2/6 537/2/6
f 537/2/6 530/2/6 538/2/6
f 536/2/6 537/2/6 539/2/6
f 539/2/6 537/2/6 540/2/6
f 541/2/6 542/2/6 544/2/6
f 544/2/6 542/2/6 545/2/6
f 543/2/6 544/2/6 548/2/6
f 548/2/6 544/2/6 549/2/6
f 545/2/6 546/2/6 550/2/6
f 550/2/6 546/2/6 551/2/6
f 547/2/6 548/2/6 553/2/6
f 553/2/6 548/2/6 554/2/6
f 551/2/6 552/2/6 557/2/6
f 557/2/6 552/2/6 558/2/6
f 554/2/6 555/2/6 559/2/6
f 559/2/6 555/2/6 560/2/6
f 556/2/6 557/2/6 561/2/6
f 561/2/6 557/2/6 562/2/6
f 560/2/6 561/2/6 563/2/6
f 563/2/6 561/2/6 564/2/6
f 565/2/6 566/2/6 568/2/6
f 568/2/6 566/2/6 569/2/6
f 567/2/6 568/2/6 572/2/6
f 572/2/6 568/2/6 573/2/6
f 569/2/6 570/2/6 574/2/6
f 574/2/6 570/2/6 575/2/6
f 571/2/6 572/2/6 578/2/6
f 578/2/6 572/2/6 579/2/6
f 575/2/6 576/2/6 580/2/6
f 580/2/6 576/2/6 581/2/6
f 577/2/6 578/2/6 583/2/6
f 583/2/6 578/2/6 584/2/6
f 581/2/6 582/2/6 587/2/6
f 587/2/6 582/2/6 588/2/6
f 584/2/6 585/2/6 589/2/6
f 589/2/6 585/2/6 590/2/6
f 586/2/6 587/2/6 593/2/6
f 593/2/6 587/2/6 594/2/6
f 590/2/6 591/2/6 595/2/6
f 595/2/6 591/2/6 596/2/6
f 592/2/6 593/2/6 597/2/6
f 597/2/6 593/2/6 598/2/6
f 596/2/6 597/2/6 599/2/6
f 599/2/6 597/2/6 600/2/6
